<svg xmlns="http://www.w3.org/2000/svg" viewBox="0 0 120 84" shape-rendering="crispEdges" role="img" aria-label="Azitrip camper van logo">
  <!-- Retro pixel-art VW Type 2 Camper Van – Side view -->

  <!-- Roof -->
  <rect x="16" y="6"  width="66" height="6"  fill="#1e293b"/>
  <rect x="18" y="7"  width="62" height="4"  fill="#fef3c7"/>

  <!-- Upper body cream band -->
  <rect x="10" y="12" width="78" height="12" fill="#fef3c7"/>
  <!-- Top/side outlines -->
  <rect x="10" y="12" width="78" height="1"  fill="#1e293b"/>
  <rect x="10" y="12" width="1"  height="24" fill="#1e293b"/>
  <rect x="87" y="12" width="1"  height="24" fill="#1e293b"/>

  <!-- Front split windshield -->
  <rect x="13" y="13" width="7"  height="10" fill="#7dd3fc"/>
  <rect x="21" y="13" width="7"  height="10" fill="#7dd3fc"/>
  <rect x="20" y="13" width="1"  height="10" fill="#fef3c7"/>
  <rect x="12" y="13" width="1"  height="10" fill="#1e293b"/>
  <rect x="29" y="13" width="1"  height="10" fill="#1e293b"/>

  <!-- Side window 1 -->
  <rect x="31" y="13" width="12" height="10" fill="#7dd3fc"/>
  <rect x="44" y="13" width="1"  height="10" fill="#1e293b"/>

  <!-- Side window 2 -->
  <rect x="46" y="13" width="12" height="10" fill="#7dd3fc"/>
  <rect x="59" y="13" width="1"  height="10" fill="#1e293b"/>

  <!-- Rear quarter window -->
  <rect x="61" y="13" width="10" height="10" fill="#7dd3fc"/>
  <rect x="72" y="13" width="1"  height="10" fill="#1e293b"/>

  <!-- Rear window -->
  <rect x="74" y="13" width="12" height="10" fill="#7dd3fc"/>
  <rect x="86" y="13" width="1"  height="10" fill="#1e293b"/>

  <!-- Divider stripe -->
  <rect x="10" y="24" width="78" height="2" fill="#1e293b"/>

  <!-- Lower body orange -->
  <rect x="11" y="26" width="76" height="10" fill="#f97316"/>

  <!-- Door score lines -->
  <rect x="29" y="26" width="1" height="10" fill="#ea6c0a"/>
  <rect x="44" y="26" width="1" height="10" fill="#ea6c0a"/>
  <rect x="59" y="26" width="1" height="10" fill="#ea6c0a"/>
  <rect x="72" y="26" width="1" height="10" fill="#ea6c0a"/>

  <!-- Bottom outline -->
  <rect x="10" y="36" width="78" height="1" fill="#1e293b"/>

  <!-- VW Badge (front nose) -->
  <rect x="13" y="27" width="8" height="8" fill="#1e293b"/>
  <rect x="14" y="28" width="6" height="6" fill="#fef3c7"/>
  <rect x="14" y="29" width="1" height="3" fill="#1e293b"/>
  <rect x="15" y="31" width="1" height="1" fill="#1e293b"/>
  <rect x="16" y="29" width="1" height="1" fill="#1e293b"/>
  <rect x="17" y="29" width="1" height="1" fill="#1e293b"/>
  <rect x="17" y="30" width="1" height="1" fill="#1e293b"/>
  <rect x="18" y="29" width="1" height="3" fill="#1e293b"/>
  <rect x="15" y="30" width="3" height="1" fill="#1e293b"/>

  <!-- Headlight -->
  <rect x="11" y="31" width="4" height="4" fill="#fde68a"/>
  <rect x="11" y="35" width="4" height="1" fill="#1e293b"/>

  <!-- Taillight -->
  <rect x="83" y="31" width="4" height="4" fill="#f87171"/>
  <rect x="83" y="35" width="4" height="1" fill="#1e293b"/>

  <!-- Bumpers -->
  <rect x="10" y="36" width="12" height="3" fill="#94a3b8"/>
  <rect x="10" y="39" width="12" height="1" fill="#1e293b"/>
  <rect x="76" y="36" width="12" height="3" fill="#94a3b8"/>
  <rect x="76" y="39" width="12" height="1" fill="#1e293b"/>

  <!-- Chassis between wheels -->
  <rect x="36" y="36" width="46" height="4" fill="#f97316"/>
  <rect x="36" y="39" width="46" height="1" fill="#1e293b"/>

  <!-- Wheel wells -->
  <rect x="18" y="37" width="18" height="6" fill="#1e293b"/>
  <rect x="62" y="37" width="18" height="6" fill="#1e293b"/>

  <!-- Front wheel -->
  <rect x="16" y="42" width="22" height="16" fill="#1e293b"/>
  <rect x="18" y="44" width="18" height="12" fill="#0f172a"/>
  <rect x="21" y="46" width="12" height="8" fill="#475569"/>
  <rect x="26" y="44" width="2" height="12" fill="#64748b"/>
  <rect x="21" y="49" width="12" height="2" fill="#64748b"/>
  <rect x="25" y="48" width="4" height="4" fill="#cbd5e1"/>
  <rect x="26" y="49" width="2" height="2" fill="#e2e8f0"/>

  <!-- Rear wheel -->
  <rect x="60" y="42" width="22" height="16" fill="#1e293b"/>
  <rect x="62" y="44" width="18" height="12" fill="#0f172a"/>
  <rect x="65" y="46" width="12" height="8" fill="#475569"/>
  <rect x="70" y="44" width="2" height="12" fill="#64748b"/>
  <rect x="65" y="49" width="12" height="2" fill="#64748b"/>
  <rect x="69" y="48" width="4" height="4" fill="#cbd5e1"/>
  <rect x="70" y="49" width="2" height="2" fill="#e2e8f0"/>

  <!-- Ground shadow -->
  <rect x="14" y="58" width="26" height="3" fill="#1e293b" opacity="0.15"/>
  <rect x="58" y="58" width="26" height="3" fill="#1e293b" opacity="0.15"/>
</svg>
